<svg width="30" height="30" viewBox="0 0 30 30" fill="none" xmlns="http://www.w3.org/2000/svg">
<path d="M8.46661 26.425C7.80987 26.6702 7.09658 26.7221 6.41127 26.5744C5.72596 26.4267 5.09735 26.0857 4.59994 25.5916C4.25716 25.253 3.98548 24.8494 3.80088 24.4043C3.61627 23.9592 3.52246 23.4818 3.52494 23C3.52863 22.6613 3.5791 22.3248 3.67494 22C3.31368 21.3244 3.03394 20.6082 2.84161 19.8666C2.07577 20.923 1.72371 22.2234 1.85205 23.5217C1.98038 24.8201 2.58021 26.0265 3.53802 26.9124C4.49582 27.7984 5.74517 28.3025 7.04961 28.3294C8.35406 28.3562 9.62311 27.904 10.6166 27.0583C9.87772 26.9316 9.15617 26.7191 8.46661 26.425V26.425Z" fill="#E745CC"/>
<path d="M15.3416 23.0667C14.1376 23.7378 12.7478 23.9983 11.3824 23.8088C10.0171 23.6194 8.75073 22.9902 7.77495 22.0167C6.80022 21.0453 6.16937 19.7821 5.97834 18.4193C5.7873 17.0565 6.04654 15.6686 6.71662 14.4667C6.53412 13.6874 6.43082 12.8917 6.40828 12.0917C4.99027 13.6045 4.21651 15.6097 4.25072 17.683C4.28494 19.7562 5.12446 21.7348 6.59162 23.2C8.06276 24.6625 10.0431 25.4985 12.1172 25.5327C14.1913 25.5669 16.1981 24.7966 17.7166 23.3833C16.9164 23.357 16.1208 23.2509 15.3416 23.0667V23.0667Z" fill="#E745CC"/>
<path d="M18.0499 21.8416C15.7175 21.8382 13.4585 21.0262 11.6575 19.5441C9.85657 18.062 8.62512 16.0014 8.17291 13.7133C7.72071 11.4252 8.07572 9.05102 9.17747 6.99525C10.2792 4.93948 12.0596 3.32923 14.2153 2.43877C16.371 1.54831 18.7688 1.43271 21.0002 2.11167C23.2315 2.79062 25.1585 4.22213 26.4529 6.16238C27.7474 8.10263 28.3291 10.4316 28.0991 12.7526C27.8691 15.0737 26.8416 17.2432 25.1916 18.8916C24.2533 19.8284 23.1397 20.5711 21.9143 21.0772C20.6889 21.5834 19.3757 21.8432 18.0499 21.8416V21.8416ZM18.0499 3.33331C16.9428 3.33222 15.8464 3.54933 14.8232 3.97223C13.8001 4.39514 12.8704 5.01555 12.0872 5.79799C11.3039 6.58043 10.6826 7.50957 10.2587 8.53228C9.83477 9.55499 9.61658 10.6512 9.61658 11.7583C9.61674 12.8665 9.83792 13.9635 10.2672 14.9852C10.6965 16.0068 11.3252 16.9326 12.1166 17.7083C13.6981 19.2894 15.8428 20.1776 18.0791 20.1776C20.3154 20.1776 22.4601 19.2894 24.0416 17.7083C25.2194 16.5276 26.0203 15.0239 26.3428 13.3877C26.6654 11.7514 26.495 10.0563 25.8534 8.51692C25.2118 6.97757 24.1277 5.66326 22.7386 4.74049C21.3494 3.81771 19.7176 3.32797 18.0499 3.33331V3.33331Z" fill="#E745CC"/>
</svg>
