<svg width="30" height="30" viewBox="0 0 30 30" fill="none" xmlns="http://www.w3.org/2000/svg">
<path d="M21.25 3.125C22.0788 3.125 22.8737 3.45424 23.4597 4.04029C24.0458 4.62634 24.375 5.4212 24.375 6.25V9.375C25.2038 9.375 25.9987 9.70424 26.5847 10.2903C27.1708 10.8763 27.5 11.6712 27.5 12.5C27.5 13.3288 27.1708 14.1237 26.5847 14.7097C25.9987 15.2958 25.2038 15.625 24.375 15.625V22.5C24.375 23.3288 24.0458 24.1237 23.4597 24.7097C22.8737 25.2958 22.0788 25.625 21.25 25.625C20.4212 25.625 19.6263 25.2958 19.0403 24.7097C18.4542 24.1237 18.125 23.3288 18.125 22.5V6.25C18.125 5.4212 18.4542 4.62634 19.0403 4.04029C19.6263 3.45424 20.4212 3.125 21.25 3.125ZM22.5 22.5V13.75H24.375C24.7065 13.75 25.0245 13.6183 25.2589 13.3839C25.4933 13.1495 25.625 12.8315 25.625 12.5C25.625 12.1685 25.4933 11.8505 25.2589 11.6161C25.0245 11.3817 24.7065 11.25 24.375 11.25H22.5V6.25C22.5 5.91848 22.3683 5.60054 22.1339 5.36612C21.8995 5.1317 21.5815 5 21.25 5C20.9185 5 20.6005 5.1317 20.3661 5.36612C20.1317 5.60054 20 5.91848 20 6.25V22.5C20 22.8315 20.1317 23.1495 20.3661 23.3839C20.6005 23.6183 20.9185 23.75 21.25 23.75C21.5815 23.75 21.8995 23.6183 22.1339 23.3839C22.3683 23.1495 22.5 22.8315 22.5 22.5ZM3.125 10C3.125 9.1712 3.45424 8.37634 4.04029 7.79029C4.62634 7.20424 5.4212 6.875 6.25 6.875H13.75C14.5788 6.875 15.3737 7.20424 15.9597 7.79029C16.5458 8.37634 16.875 9.1712 16.875 10C16.875 12.2963 16.4587 15.3925 14.9738 18.0325C13.3863 20.8562 10.55 23.125 6.25 23.125C5.4212 23.125 4.62634 22.7958 4.04029 22.2097C3.45424 21.6237 3.125 20.8288 3.125 20C3.125 19.1712 3.45424 18.3763 4.04029 17.7903C4.62634 17.2042 5.4212 16.875 6.25 16.875C7.175 16.875 7.8125 16.6575 8.28 16.3612C8.75875 16.0575 9.17 15.6 9.52625 14.9675C9.83 14.4288 10.0675 13.8 10.2425 13.125H6.25C5.4212 13.125 4.62634 12.7958 4.04029 12.2097C3.45424 11.6237 3.125 10.8288 3.125 10ZM12.17 13.125C11.9575 14.0988 11.63 15.0525 11.16 15.8875C10.2213 17.5562 8.73 18.75 6.25 18.75C5.91848 18.75 5.60054 18.8817 5.36612 19.1161C5.1317 19.3505 5 19.6685 5 20C5 20.3315 5.1317 20.6495 5.36612 20.8839C5.60054 21.1183 5.91848 21.25 6.25 21.25C9.77 21.25 12.0287 19.4438 13.34 17.1125C14.6088 14.8575 15 12.1187 15 10C15 9.66848 14.8683 9.35054 14.6339 9.11612C14.3995 8.8817 14.0815 8.75 13.75 8.75H6.25C5.91848 8.75 5.60054 8.8817 5.36612 9.11612C5.1317 9.35054 5 9.66848 5 10C5 10.3315 5.1317 10.6495 5.36612 10.8839C5.60054 11.1183 5.91848 11.25 6.25 11.25H12.4487C12.3975 11.8663 12.3075 12.5 12.17 13.125Z" fill="#E745CC"/>
</svg>
