<svg width="30" height="30" viewBox="0 0 30 30" fill="none" xmlns="http://www.w3.org/2000/svg">
<path d="M20.225 24.5L17.7125 20.15C18.9375 19.25 19.7875 17.85 19.9625 16.25H25C24.8968 17.9009 24.4118 19.5052 23.5832 20.9368C22.7547 22.3684 21.6051 23.5882 20.225 24.5ZM16.25 8.7875V3.75C21.625 4.075 25.925 8.375 26.25 13.75H21.2125C21.0729 12.4818 20.5052 11.2991 19.6031 10.3969C18.7009 9.49479 17.5182 8.9271 16.25 8.7875ZM8.75004 15.625C8.75004 16.425 8.91254 17.1875 9.22504 17.875L4.87504 20.3875C4.13107 18.9104 3.74565 17.2788 3.75004 15.625C3.75004 9.9625 8.17504 5.3375 13.75 5V10.0375C10.9375 10.35 8.75004 12.725 8.75004 15.625ZM14.375 26.25C10.6625 26.25 7.40004 24.375 5.50004 21.475L9.85004 18.9625C10.3705 19.6736 11.0517 20.2515 11.8381 20.6491C12.6245 21.0466 13.4938 21.2525 14.375 21.25C15.175 21.25 15.9375 21.0875 16.625 20.775L19.1375 25.125C17.7 25.85 16.0875 26.25 14.375 26.25Z" fill="#E745CC"/>
</svg>
