<svg width="30" height="30" viewBox="0 0 30 30" fill="none" xmlns="http://www.w3.org/2000/svg">
<path d="M15 16.25C15.6904 16.25 16.25 15.6904 16.25 15C16.25 14.3096 15.6904 13.75 15 13.75C14.3096 13.75 13.75 14.3096 13.75 15C13.75 15.6904 14.3096 16.25 15 16.25Z" stroke="#E745CC" stroke-width="2" stroke-linecap="round" stroke-linejoin="round"/>
<path d="M8.75 15C8.75 16.2361 9.11656 17.4445 9.80331 18.4723C10.4901 19.5001 11.4662 20.3012 12.6082 20.7742C13.7503 21.2473 15.0069 21.3711 16.2193 21.1299C17.4317 20.8888 18.5453 20.2935 19.4194 19.4194C20.2935 18.5453 20.8888 17.4317 21.1299 16.2193C21.3711 15.0069 21.2473 13.7503 20.7742 12.6082C20.3012 11.4662 19.5001 10.4901 18.4723 9.80332C17.4445 9.11656 16.2361 8.75 15 8.75" stroke="#E745CC" stroke-width="2" stroke-linecap="round" stroke-linejoin="round"/>
<path d="M7.86255 23.6963C9.25655 24.8403 10.9052 25.6325 12.6694 26.006C14.4337 26.3796 16.2619 26.3235 17.9999 25.8425C19.7379 25.3616 21.3349 24.4699 22.6562 23.2425C23.9774 22.0152 24.9843 20.4882 25.5919 18.7903C26.1995 17.0924 26.39 15.2733 26.1473 13.4863C25.9047 11.6993 25.236 9.9969 24.1977 8.52246C23.1593 7.04803 21.7817 5.84481 20.181 5.01424C18.5803 4.18366 16.8034 3.75007 15 3.75" stroke="#E745CC" stroke-width="2" stroke-linecap="round" stroke-linejoin="round"/>
</svg>
